<svg width="22" height="22" enable-background="new" version="1.1" xmlns="http://www.w3.org/2000/svg">
 <g id="active-center">
  <rect width="22" height="22" opacity=".001"/>
  <g transform="translate(-642 188.64)">
   <g transform="translate(-678 -432.64)">
    <g transform="translate(-103)">
     <g transform="translate(58)">
      <path transform="translate(1204,190)" d="m172 58a7 7 0 0 0-7 7 7 7 0 0 0 7 7 7 7 0 0 0 7-7 7 7 0 0 0-7-7zm-3 3.9219h0.75c8e-3 -9e-5 0.0156-3.45e-4 0.0234 0 0.19121 0.0084 0.3824 0.09643 0.51562 0.23438l1.711 1.7109 1.7344-1.7109c0.19921-0.17288 0.335-0.22912 0.51562-0.23438h0.75v0.75c0 0.21485-0.0258 0.41299-0.1875 0.5625l-1.7109 1.7109 1.6875 1.6875c0.14114 0.14113 0.21093 0.34009 0.21094 0.53906v0.75h-0.75c-0.19898-8e-6 -0.39794-0.06982-0.53906-0.21094l-1.7109-1.7109-1.7109 1.7109c-0.14112 0.14114-0.34009 0.21094-0.53906 0.21094h-0.75v-0.75c0-0.19897 0.0698-0.39794 0.21094-0.53906l1.7109-1.6875-1.7109-1.7109c-0.15806-0.14597-0.22737-0.35194-0.21094-0.5625z" fill="#f46067"/>
     </g>
    </g>
    <g transform="translate(1323 246.87)" fill="#fff">
     <g transform="matrix(.75 0 0 .75 2 2.0547)" fill="#fff">
      <g transform="translate(-60,-518)" fill="#fff"></g>
     </g>
    </g>
   </g>
   <rect x="645" y="-185.64" width="16" height="16" fill="none"/>
  </g>
 </g>
 <g id="hover-center" transform="matrix(1.375 0 0 1.375 -745.29 282.93)" stroke-width=".99174">
  <g transform="translate(-781 -432.64)" stroke-width=".99174">
   <g transform="translate(-103)">
    <g transform="translate(58)" stroke-width=".99174">
     <path transform="translate(1204,156)" d="m172 92a7 7 0 0 0-7 7 7 7 0 0 0 7 7 7 7 0 0 0 7-7 7 7 0 0 0-7-7zm-3 3.9219h0.75c8e-3 -9e-5 0.0156-3.45e-4 0.0234 0 0.19121 0.0084 0.3824 0.09643 0.51562 0.23438l1.711 1.7109 1.7344-1.7109c0.19921-0.17288 0.335-0.22912 0.51562-0.23438h0.75v0.75c0 0.21485-0.0258 0.41299-0.1875 0.5625l-1.7109 1.7109 1.6875 1.6875c0.14114 0.14113 0.21093 0.34009 0.21094 0.53907v0.75h-0.75c-0.19898-1e-5 -0.39794-0.0698-0.53906-0.21094l-1.7109-1.7109-1.7109 1.7109c-0.14112 0.14114-0.34009 0.21094-0.53906 0.21094h-0.75v-0.75c0-0.19897 0.0698-0.39794 0.21094-0.53907l1.7109-1.6875-1.7109-1.7109c-0.15806-0.14597-0.22737-0.35194-0.21094-0.5625z" fill="#f46067"/>
    </g>
   </g>
   <g transform="translate(1323 246.87)" fill="#fff">
    <g transform="matrix(.75 0 0 .75 2 2.0547)" fill="#fff" stroke-width=".99174">
     <g transform="translate(-60,-518)" fill="#fff" stroke-width=".99174"></g>
    </g>
   </g>
  </g>
  <rect x="542" y="-185.64" width="16" height="16" fill="none"/>
 </g>
 <g id="pressed-center" transform="matrix(1.375 0 0 1.375 -606.41 306.11)" stroke-width=".99174">
  <g transform="translate(-882 -432.64)" stroke-width=".99174">
   <g transform="translate(-103)">
    <g transform="translate(58)" stroke-width=".99174">
     <path transform="matrix(.73333 0 0 .73333 1237.1 162.99)" d="m189.46 115.92a9.5455 9.5455 0 0 0-9.5469 9.5449 9.5455 9.5455 0 0 0 9.5469 9.5449 9.5455 9.5455 0 0 0 9.5449-9.5449 9.5455 9.5455 0 0 0-9.5449-9.5449zm-4.0918 5.3477h1.0234c0.0106-1.2e-4 0.0206-4.7e-4 0.0312 0 0.26074 0.0115 0.52146 0.13221 0.70312 0.32031l2.334 2.332 2.3652-2.332c0.27166-0.23574 0.45683-0.31315 0.70313-0.32031h1.0215v1.0234c0 0.29298-0.0353 0.56174-0.25586 0.76562l-2.332 2.334 2.3008 2.3008c0.19247 0.19244 0.2871 0.46499 0.28711 0.73632v1.0215h-1.0215c-0.27133-1e-5 -0.54389-0.0947-0.73633-0.28711l-2.332-2.334-2.334 2.334c-0.19244 0.19247-0.46305 0.28711-0.73437 0.28711h-1.0234v-1.0215c0-0.27131 0.0946-0.54388 0.28711-0.73632l2.334-2.3008-2.334-2.334c-0.21553-0.19905-0.30952-0.47849-0.28711-0.76562z" fill="#f13039"/>
    </g>
   </g>
   <g transform="translate(1323 246.87)" fill="#fff">
    <g transform="matrix(.75 0 0 .75 2 2.0547)" fill="#fff" stroke-width=".99174">
     <g transform="translate(-60,-518)" fill="#fff" stroke-width=".99174"></g>
    </g>
   </g>
  </g>
  <rect x="441" y="-185.64" width="16" height="16" fill="none"/>
 </g>
 <g id="inactive-center">
  <rect x="28.132" y="-.26367" width="22" height="22" opacity=".001"/>
  <g transform="translate(-613.87 188.37)" opacity=".45">
   <g transform="translate(-678 -432.64)" opacity="1">
    <g transform="translate(-103)" opacity="1">
     <g transform="translate(58)">
      <path transform="translate(1204,173)" d="m172 75a7 7 0 0 0-7 7 7 7 0 0 0 7 7 7 7 0 0 0 7-7 7 7 0 0 0-7-7zm-3 3.9219h0.75c8e-3 -9e-5 0.0156-3.5e-4 0.0234 0 0.19122 8e-3 0.38239 0.09641 0.51562 0.23438l1.711 1.7109 1.7344-1.7109c0.0996-0.08644 0.18419-0.14336 0.26562-0.17969 0.0814-0.03633 0.15969-0.05206 0.25-0.05469h0.75v0.75c0 0.21485-0.0257 0.41298-0.1875 0.5625l-1.7109 1.7109 1.6875 1.6875c0.14114 0.14113 0.21094 0.34009 0.21094 0.53907v0.75h-0.75c-0.19898-8e-6 -0.39794-0.06982-0.53906-0.21094l-1.7109-1.7109-1.7109 1.7109c-0.14113 0.14114-0.34009 0.21094-0.53906 0.21094h-0.75v-0.75c0-0.19897 0.0698-0.39793 0.21094-0.53906l1.7109-1.6875-1.7109-1.7109c-0.15805-0.14598-0.22737-0.35194-0.21094-0.5625z" fill="#515a59" fill-opacity=".99276" opacity="1"/>
     </g>
    </g>
    <g transform="translate(1323 246.87)" fill="#fff">
     <g transform="matrix(.75 0 0 .75 2 2.0547)" fill="#fff">
      <g transform="translate(-60,-518)" fill="#fff"></g>
     </g>
    </g>
   </g>
   <rect x="645" y="-185.64" width="16" height="16" fill="none" opacity="1"/>
  </g>
 </g>
 <g id="deactivated-center" transform="translate(0 28.212)">
  <rect x="28.132" y="-.26367" width="22" height="22" opacity=".001"/>
  <g transform="translate(-613.87 188.37)" opacity=".45">
   <g transform="translate(-678 -432.64)" opacity="1">
    <g transform="translate(-103)" opacity="1">
     <g transform="translate(58)">
      <path transform="translate(1204,173)" d="m172 75a7 7 0 0 0-7 7 7 7 0 0 0 7 7 7 7 0 0 0 7-7 7 7 0 0 0-7-7zm-3 3.9219h0.75c8e-3 -9e-5 0.0156-3.5e-4 0.0234 0 0.19122 8e-3 0.38239 0.09641 0.51562 0.23438l1.711 1.7109 1.7344-1.7109c0.0996-0.08644 0.18419-0.14336 0.26562-0.17969 0.0814-0.03633 0.15969-0.05206 0.25-0.05469h0.75v0.75c0 0.21485-0.0257 0.41298-0.1875 0.5625l-1.7109 1.7109 1.6875 1.6875c0.14114 0.14113 0.21094 0.34009 0.21094 0.53907v0.75h-0.75c-0.19898-8e-6 -0.39794-0.06982-0.53906-0.21094l-1.7109-1.7109-1.7109 1.7109c-0.14113 0.14114-0.34009 0.21094-0.53906 0.21094h-0.75v-0.75c0-0.19897 0.0698-0.39793 0.21094-0.53906l1.7109-1.6875-1.7109-1.7109c-0.15805-0.14598-0.22737-0.35194-0.21094-0.5625z" fill="#515a59" fill-opacity=".99276" opacity="1"/>
     </g>
    </g>
    <g transform="translate(1323 246.87)" fill="#fff">
     <g transform="matrix(.75 0 0 .75 2 2.0547)" fill="#fff">
      <g transform="translate(-60,-518)" fill="#fff"></g>
     </g>
    </g>
   </g>
   <rect x="645" y="-185.64" width="16" height="16" fill="none" opacity="1"/>
  </g>
 </g>
</svg>
